<svg width="381" height="380" viewBox="0 0 381 380" fill="none" xmlns="http://www.w3.org/2000/svg">
<g filter="url(#filter0_d_1637_5636)">
<path d="M91.5925 262.959C75.8856 242.108 67.1224 216.851 66.5395 190.752C65.9566 164.653 73.5833 139.03 88.3436 117.498" stroke="white" stroke-width="8" stroke-miterlimit="16" stroke-linecap="round" stroke-linejoin="round"/>
</g>
<g filter="url(#filter1_d_1637_5636)">
<path d="M116.172 88.4035C137.027 72.7002 162.285 63.9414 188.384 63.3631C214.483 62.7847 240.105 70.416 261.634 85.1801" stroke="white" stroke-width="8" stroke-miterlimit="16" stroke-linecap="round" stroke-linejoin="round"/>
</g>
<g filter="url(#filter2_d_1637_5636)">
<path d="M292.356 115.234C307.591 136.433 315.784 161.881 315.78 187.986C315.776 214.092 307.576 239.537 292.335 260.732" stroke="white" stroke-width="8" stroke-miterlimit="16" stroke-linecap="round" stroke-linejoin="round"/>
</g>
<g filter="url(#filter3_d_1637_5636)">
<path d="M263.843 289.205C242.638 304.432 217.188 312.617 191.082 312.604C164.977 312.591 139.535 304.381 118.345 289.133" stroke="white" stroke-width="8" stroke-miterlimit="16" stroke-linecap="round" stroke-linejoin="round"/>
</g>
<g filter="url(#filter4_d_1637_5636)">
<path d="M164.78 352.223C131.201 345.072 100.406 328.366 76.1024 304.116C51.7993 279.867 35.0253 249.108 27.8006 215.545" stroke="white" stroke-width="8" stroke-miterlimit="16" stroke-linecap="round" stroke-linejoin="round"/>
</g>
<g filter="url(#filter5_d_1637_5636)">
<path d="M215.569 27.7467C249.1 34.9596 279.834 51.7036 304.077 75.9658C328.32 100.228 345.039 130.976 352.225 164.513" stroke="white" stroke-width="8" stroke-miterlimit="16" stroke-linecap="round" stroke-linejoin="round"/>
</g>
<g filter="url(#filter6_d_1637_5636)">
<path d="M352.109 215.913C344.84 249.337 328.097 279.961 303.882 304.121C279.668 328.281 249.006 344.954 215.564 352.147" stroke="white" stroke-width="8" stroke-miterlimit="16" stroke-linecap="round" stroke-linejoin="round"/>
</g>
<g filter="url(#filter7_d_1637_5636)">
<path d="M27.7555 164.559C34.9296 131.033 51.6303 100.292 75.8515 76.0274C100.073 51.7629 130.784 35.0073 164.297 27.7734" stroke="white" stroke-width="8" stroke-miterlimit="16" stroke-linecap="round" stroke-linejoin="round"/>
</g>
<g clip-path="url(#clip0_1637_5636)">
<g opacity="0.2">
<path d="M242.396 171.37H137.296C132.041 171.37 128.022 175.389 128.022 180.644L140.387 236.285C140.387 241.54 144.406 245.559 149.661 245.559H230.031C235.286 245.559 239.305 241.54 239.305 236.285L251.669 180.644C251.669 175.389 247.651 171.37 242.396 171.37ZM165.116 230.103C165.116 233.503 162.334 236.285 158.934 236.285C155.534 236.285 152.752 233.503 152.752 230.103V211.556C152.752 208.155 155.534 205.373 158.934 205.373C162.334 205.373 165.116 208.155 165.116 211.556V230.103ZM196.028 230.103C196.028 233.503 193.246 236.285 189.846 236.285C186.446 236.285 183.663 233.503 183.663 230.103V211.556C183.663 208.155 186.446 205.373 189.846 205.373C193.246 205.373 196.028 208.155 196.028 211.556V230.103ZM226.94 230.103C226.94 233.503 224.158 236.285 220.758 236.285C217.357 236.285 214.575 233.503 214.575 230.103V211.556C214.575 208.155 217.357 205.373 220.758 205.373C224.158 205.373 226.94 208.155 226.94 211.556V230.103Z" fill="#231F20"/>
</g>
<path d="M251.982 149.148H128.732C122.569 149.148 117.857 153.806 117.857 159.898L132.357 224.398C132.357 230.49 137.069 235.148 143.232 235.148H237.482C243.644 235.148 248.357 230.49 248.357 224.398L262.857 159.898C262.857 153.806 258.144 149.148 251.982 149.148ZM161.357 217.231C161.357 221.173 158.094 224.398 154.107 224.398C150.119 224.398 146.857 221.173 146.857 217.231V195.731C146.857 191.79 150.119 188.565 154.107 188.565C158.094 188.565 161.357 191.79 161.357 195.731V217.231ZM197.607 217.231C197.607 221.173 194.344 224.398 190.357 224.398C186.369 224.398 183.107 221.173 183.107 217.231V195.731C183.107 191.79 186.369 188.565 190.357 188.565C194.344 188.565 197.607 191.79 197.607 195.731V217.231ZM233.857 217.231C233.857 221.173 230.594 224.398 226.607 224.398C222.619 224.398 219.357 221.173 219.357 217.231V195.731C219.357 191.79 222.619 188.565 226.607 188.565C230.594 188.565 233.857 191.79 233.857 195.731V217.231Z" fill="#FF8A2A"/>
<g opacity="0.2">
<path d="M276.857 163.148C276.857 166.998 273.613 170.148 269.648 170.148H111.065C107.1 170.148 103.857 166.998 103.857 163.148C103.857 159.298 107.1 156.148 111.065 156.148H269.648C273.613 156.148 276.857 159.298 276.857 163.148Z" fill="#231F20"/>
</g>
<path d="M276.857 156.148C276.857 159.998 273.613 163.148 269.648 163.148H111.065C107.1 163.148 103.857 159.998 103.857 156.148C103.857 152.298 107.1 149.148 111.065 149.148H269.648C273.613 149.148 276.857 152.298 276.857 156.148Z" fill="#FF8A2A"/>
<g opacity="0.2">
<path d="M229.675 117.313C232.584 120.2 232.584 124.53 229.675 127.416L188.22 182.983C185.311 185.87 180.948 185.87 178.038 182.983C175.129 180.097 175.129 175.767 178.038 172.88L219.493 117.313C222.402 114.426 226.766 114.426 229.675 117.313Z" fill="#231F20"/>
</g>
<path d="M229.675 109.313C232.584 112.2 232.584 116.53 229.675 119.416L188.22 174.983C185.311 177.87 180.948 177.87 178.038 174.983C175.129 172.097 175.129 167.767 178.038 164.88L219.493 109.313C222.402 106.426 226.766 106.426 229.675 109.313Z" fill="#4F5D73"/>
</g>
<defs>
<filter id="filter0_d_1637_5636" x="58.5084" y="113.498" width="41.0844" height="161.462" filterUnits="userSpaceOnUse" color-interpolation-filters="sRGB">
<feFlood flood-opacity="0" result="BackgroundImageFix"/>
<feColorMatrix in="SourceAlpha" type="matrix" values="0 0 0 0 0 0 0 0 0 0 0 0 0 0 0 0 0 0 127 0" result="hardAlpha"/>
<feOffset dy="4"/>
<feGaussianBlur stdDeviation="2"/>
<feComposite in2="hardAlpha" operator="out"/>
<feColorMatrix type="matrix" values="0 0 0 0 0 0 0 0 0 0 0 0 0 0 0 0 0 0 0.5 0"/>
<feBlend mode="normal" in2="BackgroundImageFix" result="effect1_dropShadow_1637_5636"/>
<feBlend mode="normal" in="SourceGraphic" in2="effect1_dropShadow_1637_5636" result="shape"/>
</filter>
<filter id="filter1_d_1637_5636" x="108.172" y="59.3325" width="161.462" height="41.0712" filterUnits="userSpaceOnUse" color-interpolation-filters="sRGB">
<feFlood flood-opacity="0" result="BackgroundImageFix"/>
<feColorMatrix in="SourceAlpha" type="matrix" values="0 0 0 0 0 0 0 0 0 0 0 0 0 0 0 0 0 0 127 0" result="hardAlpha"/>
<feOffset dy="4"/>
<feGaussianBlur stdDeviation="2"/>
<feComposite in2="hardAlpha" operator="out"/>
<feColorMatrix type="matrix" values="0 0 0 0 0 0 0 0 0 0 0 0 0 0 0 0 0 0 0.5 0"/>
<feBlend mode="normal" in2="BackgroundImageFix" result="effect1_dropShadow_1637_5636"/>
<feBlend mode="normal" in="SourceGraphic" in2="effect1_dropShadow_1637_5636" result="shape"/>
</filter>
<filter id="filter2_d_1637_5636" x="284.335" y="111.234" width="39.4453" height="161.498" filterUnits="userSpaceOnUse" color-interpolation-filters="sRGB">
<feFlood flood-opacity="0" result="BackgroundImageFix"/>
<feColorMatrix in="SourceAlpha" type="matrix" values="0 0 0 0 0 0 0 0 0 0 0 0 0 0 0 0 0 0 127 0" result="hardAlpha"/>
<feOffset dy="4"/>
<feGaussianBlur stdDeviation="2"/>
<feComposite in2="hardAlpha" operator="out"/>
<feColorMatrix type="matrix" values="0 0 0 0 0 0 0 0 0 0 0 0 0 0 0 0 0 0 0.5 0"/>
<feBlend mode="normal" in2="BackgroundImageFix" result="effect1_dropShadow_1637_5636"/>
<feBlend mode="normal" in="SourceGraphic" in2="effect1_dropShadow_1637_5636" result="shape"/>
</filter>
<filter id="filter3_d_1637_5636" x="110.345" y="285.133" width="161.498" height="39.4706" filterUnits="userSpaceOnUse" color-interpolation-filters="sRGB">
<feFlood flood-opacity="0" result="BackgroundImageFix"/>
<feColorMatrix in="SourceAlpha" type="matrix" values="0 0 0 0 0 0 0 0 0 0 0 0 0 0 0 0 0 0 127 0" result="hardAlpha"/>
<feOffset dy="4"/>
<feGaussianBlur stdDeviation="2"/>
<feComposite in2="hardAlpha" operator="out"/>
<feColorMatrix type="matrix" values="0 0 0 0 0 0 0 0 0 0 0 0 0 0 0 0 0 0 0.5 0"/>
<feBlend mode="normal" in2="BackgroundImageFix" result="effect1_dropShadow_1637_5636"/>
<feBlend mode="normal" in="SourceGraphic" in2="effect1_dropShadow_1637_5636" result="shape"/>
</filter>
<filter id="filter4_d_1637_5636" x="19.7997" y="211.544" width="152.981" height="152.68" filterUnits="userSpaceOnUse" color-interpolation-filters="sRGB">
<feFlood flood-opacity="0" result="BackgroundImageFix"/>
<feColorMatrix in="SourceAlpha" type="matrix" values="0 0 0 0 0 0 0 0 0 0 0 0 0 0 0 0 0 0 127 0" result="hardAlpha"/>
<feOffset dy="4"/>
<feGaussianBlur stdDeviation="2"/>
<feComposite in2="hardAlpha" operator="out"/>
<feColorMatrix type="matrix" values="0 0 0 0 0 0 0 0 0 0 0 0 0 0 0 0 0 0 0.5 0"/>
<feBlend mode="normal" in2="BackgroundImageFix" result="effect1_dropShadow_1637_5636"/>
<feBlend mode="normal" in="SourceGraphic" in2="effect1_dropShadow_1637_5636" result="shape"/>
</filter>
<filter id="filter5_d_1637_5636" x="207.568" y="23.7458" width="152.658" height="152.768" filterUnits="userSpaceOnUse" color-interpolation-filters="sRGB">
<feFlood flood-opacity="0" result="BackgroundImageFix"/>
<feColorMatrix in="SourceAlpha" type="matrix" values="0 0 0 0 0 0 0 0 0 0 0 0 0 0 0 0 0 0 127 0" result="hardAlpha"/>
<feOffset dy="4"/>
<feGaussianBlur stdDeviation="2"/>
<feComposite in2="hardAlpha" operator="out"/>
<feColorMatrix type="matrix" values="0 0 0 0 0 0 0 0 0 0 0 0 0 0 0 0 0 0 0.5 0"/>
<feBlend mode="normal" in2="BackgroundImageFix" result="effect1_dropShadow_1637_5636"/>
<feBlend mode="normal" in="SourceGraphic" in2="effect1_dropShadow_1637_5636" result="shape"/>
</filter>
<filter id="filter6_d_1637_5636" x="207.564" y="211.912" width="152.546" height="152.236" filterUnits="userSpaceOnUse" color-interpolation-filters="sRGB">
<feFlood flood-opacity="0" result="BackgroundImageFix"/>
<feColorMatrix in="SourceAlpha" type="matrix" values="0 0 0 0 0 0 0 0 0 0 0 0 0 0 0 0 0 0 127 0" result="hardAlpha"/>
<feOffset dy="4"/>
<feGaussianBlur stdDeviation="2"/>
<feComposite in2="hardAlpha" operator="out"/>
<feColorMatrix type="matrix" values="0 0 0 0 0 0 0 0 0 0 0 0 0 0 0 0 0 0 0.5 0"/>
<feBlend mode="normal" in2="BackgroundImageFix" result="effect1_dropShadow_1637_5636"/>
<feBlend mode="normal" in="SourceGraphic" in2="effect1_dropShadow_1637_5636" result="shape"/>
</filter>
<filter id="filter7_d_1637_5636" x="19.7547" y="23.7726" width="152.543" height="152.787" filterUnits="userSpaceOnUse" color-interpolation-filters="sRGB">
<feFlood flood-opacity="0" result="BackgroundImageFix"/>
<feColorMatrix in="SourceAlpha" type="matrix" values="0 0 0 0 0 0 0 0 0 0 0 0 0 0 0 0 0 0 127 0" result="hardAlpha"/>
<feOffset dy="4"/>
<feGaussianBlur stdDeviation="2"/>
<feComposite in2="hardAlpha" operator="out"/>
<feColorMatrix type="matrix" values="0 0 0 0 0 0 0 0 0 0 0 0 0 0 0 0 0 0 0.5 0"/>
<feBlend mode="normal" in2="BackgroundImageFix" result="effect1_dropShadow_1637_5636"/>
<feBlend mode="normal" in="SourceGraphic" in2="effect1_dropShadow_1637_5636" result="shape"/>
</filter>
<clipPath id="clip0_1637_5636">
<rect x="91.0002" y="91" width="197.835" height="197.835" rx="98.9175" fill="white"/>
</clipPath>
</defs>
</svg>
