<svg xmlns="http://www.w3.org/2000/svg" version="1.1" viewBox="-5.0 -10.0 110.0 135.0">
 <path d="m88.879 28.379h-20.883c-0.42969 0-0.78125 0.34766-0.78125 0.78125s0.35156 0.78125 0.78125 0.78125h20.883c0.42969 0 0.78125-0.34766 0.78125-0.78125s-0.34766-0.78125-0.78125-0.78125z"/>
 <path d="m78.785 52.305h-42.211v-22.363h19.965c0.42969 0 0.78125-0.34766 0.78125-0.78125s-0.35156-0.78125-0.78125-0.78125h-20.746c-0.42969 0-0.78125 0.34766-0.78125 0.78125v2.957h-16.414c-0.29297 0-0.5625 0.16406-0.69531 0.42969l-7.4805 14.766c-0.19531 0.38672-0.039063 0.85547 0.34375 1.0508 0.38672 0.19531 0.85547 0.039063 1.0508-0.34375l7.2617-14.34h15.934v28.531h-4.9727c-0.84766-3.2227-3.7734-5.6094-7.2578-5.6094s-6.4102 2.3867-7.2578 5.6094h-3.625v-5.4375c0-0.43359-0.35156-0.78125-0.78125-0.78125-0.42969 0-0.78125 0.34766-0.78125 0.78125v6.2188c0 0.43359 0.35156 0.78125 0.78125 0.78125h4.168c-0.003906 0.11328-0.015625 0.22656-0.015625 0.33984 0 4.1406 3.3672 7.5078 7.5078 7.5078s7.5117-3.3711 7.5117-7.5078c0-0.11328-0.011718-0.22656-0.015624-0.33984h28.68c-0.003906 0.11328-0.015625 0.22656-0.015625 0.33984 0 4.1406 3.3711 7.5078 7.5117 7.5078s7.5117-3.3711 7.5117-7.5078c0-0.11328-0.011719-0.22656-0.015626-0.33984h4.8438c0.42969 0 0.78125-0.34766 0.78125-0.78125v-9.9062c-0.003906-0.43359-0.35156-0.78125-0.78516-0.78125zm-56.004 17.754c-3.2773 0-5.9453-2.668-5.9453-5.9453 0-3.2812 2.668-5.9492 5.9453-5.9492 3.2812 0 5.9492 2.668 5.9492 5.9492 0 3.2773-2.668 5.9453-5.9492 5.9453zm43.668 0c-3.2812 0-5.9492-2.668-5.9492-5.9453 0-3.2812 2.668-5.9492 5.9492-5.9492s5.9492 2.668 5.9492 5.9492c0 3.2773-2.668 5.9453-5.9492 5.9453zm11.555-7.8477h-4.2969c-0.84766-3.2227-3.7734-5.6094-7.2578-5.6094s-6.4102 2.3867-7.2578 5.6094h-22.617v-8.3438h41.43z"/>
 <path d="m18.039 45.641h12.898c0.42969 0 0.78125-0.34766 0.78125-0.78125v-7.1055c0-0.43359-0.35156-0.78125-0.78125-0.78125l-9.1641 0.003906c-0.28906 0-0.55469 0.16016-0.69141 0.41797l-3.7383 7.1055c-0.12891 0.24219-0.11719 0.53516 0.023438 0.76562 0.14453 0.23047 0.39844 0.375 0.67187 0.375zm4.207-7.1016h7.9062v5.543l-10.82-0.003906z"/>
 <path d="m81.965 36.977h-34.582c-0.42969 0-0.78125 0.34766-0.78125 0.78125 0 0.43359 0.35156 0.78125 0.78125 0.78125h34.582c0.42969 0 0.78125-0.34766 0.78125-0.78125 0-0.43359-0.35156-0.78125-0.78125-0.78125z"/>
 <path d="m41.777 47.324h33.832c0.42969 0 0.78125-0.34766 0.78125-0.78125 0-0.43359-0.35156-0.78125-0.78125-0.78125h-33.832c-0.42969 0-0.78125 0.34766-0.78125 0.78125 0 0.42969 0.34766 0.78125 0.78125 0.78125z"/>
<text x="0.0" y="117.5" font-size="5.0" font-weight="bold" font-family="Arbeit Regular, Helvetica, Arial-Unicode, Arial, Sans-serif" fill="#000000">Created by Azzam</text><text x="0.0" y="122.5" font-size="5.0" font-weight="bold" font-family="Arbeit Regular, Helvetica, Arial-Unicode, Arial, Sans-serif" fill="#000000">from Noun Project</text></svg>